<?xml version="1.0" encoding="UTF-8" standalone="no"?>
<!DOCTYPE svg PUBLIC "-//W3C//DTD SVG 1.1//EN" "http://www.w3.org/Graphics/SVG/1.1/DTD/svg11.dtd">
<svg version="1.1" xmlns="http://www.w3.org/2000/svg" xmlns:xlink="http://www.w3.org/1999/xlink" preserveAspectRatio="xMidYMid meet" viewBox="0 0 401 475" width="401" height="475"><defs><path d="M239.6 1.58C236.45 8.07 229.89 16.22 218.17 28.2C203.17 43.53 200.73 46.23 195.3 53.43C188.68 62.22 184 72.08 182.22 80.99C181.68 83.69 181.46 85.53 180.98 91.39C180.89 92.55 180.58 93.38 180.11 93.71C179.71 93.99 177.35 95.57 174.87 97.21C154.02 111.01 130.75 135.51 113.38 161.98C108.29 169.74 104.38 176.29 92.39 197.18C75.39 226.79 63.03 247.08 58.14 253.44C53.62 259.32 30.95 281.04 10.5 299.09C1.04 307.45 0.58 308.12 8.14 302.64C32.32 285.09 54.57 264.45 105.22 212.6C154.84 161.82 172.75 146.55 187.41 142.56C189.15 142.08 190.62 141.65 190.68 141.6C191.03 141.29 196 125.95 197.81 119.62C201.12 107.96 205.07 103.12 217.58 95.37C217.79 95.23 218.85 94.58 220.76 93.39C221.11 93.93 221.31 94.23 221.34 94.29C225.61 100.8 229.06 113.14 230.17 125.81C231.31 138.9 233.38 142.07 244.32 147.5C252.33 151.47 254.31 153.8 257.17 162.58C259.69 170.36 262.57 174.34 271.26 182.06C283.12 192.61 286.99 196.95 288.79 201.73C290.95 207.48 289.25 211.81 283.86 214.21C283.26 214.48 282.76 214.98 282.76 215.31C282.76 216.61 279.51 222.5 277.41 225.01C267.19 237.25 253.68 240.57 234.57 235.57C224.08 232.82 212.09 232.84 205.62 235.6C197.68 239 195.15 241.14 189.07 249.63C182.87 258.28 183.03 261.39 190.77 284.37C196.99 302.82 198.18 310.17 198.13 329.96C198.05 367.05 185.37 409.16 163.61 444.6C160.26 450.05 159.53 449.08 170.21 453.33C189.77 461.11 206.33 466.44 229.17 472.31C229.42 472.37 230.69 472.7 232.97 473.28L234.37 473.35C234.37 471.01 234.37 469.71 234.37 469.45C234.36 450.33 231.25 424.31 225.41 394.35C217.58 354.24 217.7 355.39 217.37 319.76C217.06 287.31 217.4 284.34 222.6 273.44C226.84 264.53 237.17 249.69 241.31 246.55C255.93 235.44 269.65 235.99 297.16 248.76C312.5 255.88 317.56 257.17 329.96 257.17C349.45 257.16 365.99 248.53 380.95 230.55C390 219.68 399.95 201.77 399.95 196.36C399.95 189.86 394.56 185.64 386.15 185.56C381.19 185.51 380.41 185.26 370.25 180.51C345.24 168.81 326.04 154.69 317.51 141.71C292.13 103.06 277.68 89.04 255.37 81.43C247.53 78.75 247.75 79.05 247.82 70.8C247.91 60.81 249.87 51.36 255.5 33.8C261.47 15.18 262.13 12.6 260.92 12.61C257.92 12.65 252.99 16.02 247.39 21.86C235.8 33.94 234.65 35.02 234.05 34.41C233.62 33.98 235.09 26.43 237.55 16.41C241.07 2.11 241.76 -2.88 239.6 1.58" id="e15qe7wJnm"></path></defs><g><g><g><use xlink:href="#e15qe7wJnm" opacity="1" fill="#09090d" fill-opacity="1"></use><g><use xlink:href="#e15qe7wJnm" opacity="1" fill-opacity="0" stroke="#000000" stroke-width="1" stroke-opacity="0"></use></g></g></g></g></svg>